<?xml version="1.0"?>
<svg width="767" height="501" xmlns="http://www.w3.org/2000/svg" xmlns:svg="http://www.w3.org/2000/svg">
 <defs>
  <clipPath id="clip0_101_2">
   <rect fill="white" height="500.95" id="svg_1" width="766.8"/>
  </clipPath>
 </defs>
 <g class="layer">
  <title>Layer 1</title>
  <g clip-path="url(#clip0_101_2)" id="svg_2">
   <path d="m663.5,412.23c-0.4,14.87 -2.89,29.61 -7.4,43.79c-0.1,0.33 -0.21,0.65 -0.32,0.98l-27.61,0c0.03,-0.3 0.06,-0.62 0.08,-0.98c1.85,-21.17 -8.67,-148.46 -21.36,-170.48c1.11,1.78 58.75,59.44 56.61,126.69z" fill="#31A707" id="svg_3"/>
   <path d="m661.43,456.02c-0.23,0.33 -0.47,0.66 -0.72,0.98l-20.72,0c0.16,-0.28 0.34,-0.61 0.55,-0.98c3.43,-6.18 13.56,-24.64 22.96,-43.79c10.1,-20.57 19.37,-41.92 18.59,-49.65c0.24,1.74 7.23,54.88 -20.66,93.44z" fill="#51FE14" id="svg_4"/>
   <path d="m730.92,432.46c-0.22,8.15 -1.58,16.23 -4.05,24c-0.06,0.18 -0.12,0.36 -0.18,0.54l-15.14,0c0.02,-0.16 0.04,-0.34 0.05,-0.54c1.01,-11.6 -4.76,-81.38 -11.71,-93.46c0.61,0.98 32.21,32.59 31.03,69.46z" fill="#31A707" id="svg_5"/>
   <path d="m729.79,456.46c-0.13,0.18 -0.26,0.36 -0.4,0.54l-11.35,0c0.08,-0.15 0.18,-0.33 0.3,-0.54c1.87,-3.38 7.43,-13.51 12.58,-24c5.54,-11.28 10.62,-22.98 10.19,-27.22c0.14,0.95 3.97,30.08 -11.32,51.22z" fill="#51FE14" id="svg_6"/>
   <path d="m587.92,432.46c-0.22,8.15 -1.58,16.23 -4.05,24c-0.06,0.18 -0.12,0.36 -0.18,0.54l-15.14,0c0.02,-0.16 0.04,-0.34 0.05,-0.54c1.01,-11.6 -4.76,-81.38 -11.71,-93.46c0.61,0.98 32.21,32.59 31.03,69.46z" fill="#31A707" id="svg_7"/>
   <path d="m586.79,456.46c-0.13,0.18 -0.26,0.36 -0.4,0.54l-11.35,0c0.08,-0.15 0.18,-0.33 0.3,-0.54c1.87,-3.38 7.43,-13.51 12.58,-24c5.54,-11.28 10.62,-22.98 10.19,-27.22c0.14,0.95 3.97,30.08 -11.32,51.22z" fill="#51FE14" id="svg_8"/>
   <path d="m314.57,442.1l14.56,0l6.93,-56.15l-21.49,0.01l0,56.14z" fill="#FFB7B7" id="svg_9"/>
   <path d="m310.86,437.35l28.67,0l0,0c4.84,0 9.49,1.92 12.92,5.35c3.42,3.42 5.35,8.07 5.35,12.92l0,0.59l-46.94,0l0,-18.86z" fill="#2F2E41" id="svg_10"/>
   <path d="m235.76,442.1l14.56,0l6.92,-56.15l-21.48,0.01l0,56.14z" fill="#FFB7B7" id="svg_11"/>
   <path d="m232.05,437.35l28.67,0l0,0c4.84,0 9.49,1.92 12.91,5.35c3.43,3.42 5.36,8.07 5.36,12.92l0,0.59l-46.94,0l0,-18.86z" fill="#2F2E41" id="svg_12"/>
   <path d="m229.83,187.64l0,148.24l3.76,95.7l30.96,0l10.32,-180.14l20.64,74.12l13.13,104.14l37.53,-1.87l-25.33,-240.19l-91.01,0z" fill="#2F2E41" id="svg_13"/>
   <path d="m265.82,54.41c12.44,0 22.52,-10.08 22.52,-22.52c0,-12.44 -10.08,-22.52 -22.52,-22.52c-12.43,0 -22.51,10.08 -22.51,22.52c0,12.44 10.08,22.52 22.51,22.52z" fill="#FFB8B8" id="svg_14"/>
   <path d="m256.47,60.27l-6,6.34l-5.63,126.66l66.62,-1.88l-15.95,-110.71l-14.07,-13.49l-7.15,-6.92l-17.82,0z" fill="#7f3f00" id="svg_15" transform="matrix(1 0 0 1 0 0)"/>
   <path d="m245.78,74.11l5.06,-8.21l1.51,17.59c0,0 12.2,39.41 11.26,74.12c-0.94,34.72 4.69,116.34 -2.82,117.28c-7.5,0.94 -39.4,2.82 -39.4,-3.75c0,-6.57 -1.88,-181.08 -1.88,-181.08l26.27,-15.95z" fill="#0000ff" id="svg_16" transform="matrix(1 0 0 1 0 0)"/>
   <path d="m279.92,65.9l12.77,10.09l28.15,10.32c0,0 0,120.09 5.63,148.24c5.63,28.15 15.95,30.96 2.82,31.9c-13.14,0.94 -12.2,-3.75 -12.2,-3.75c0,0 9.38,-46.92 -2.82,-56.3c-12.19,-9.38 -35.65,-63.8 -33.77,-93.82c1.87,-30.02 -2.45,-46.68 -0.58,-46.68z" fill="#0000ff" id="svg_17" transform="matrix(1 0 0 1 0 0)"/>
   <path d="m244.52,38.94c0,0 1.92,-3.36 1.47,-14.59c-0.45,-11.22 16.65,-4.87 30.93,-5.94c14.28,-1.08 11.26,18.73 11.26,18.73c0,0 1.03,-1.17 3.23,-10.73c2.21,-9.56 -2.8,-19.09 -2.8,-19.09c-1.47,-10.05 -9.42,-6.83 -9.42,-6.83c3.82,1.49 3.09,4.68 3.09,4.68c-3.24,-5.68 -11.19,-2.46 -11.19,-2.46c-10.6,-6.66 -21.35,2.1 -21.35,2.1c-12.81,2.91 -5.3,13.1 -5.3,13.1c-12.88,6.51 0.08,21.03 0.08,21.03z" fill="#2F2E41" id="svg_18"/>
   <path d="m221.42,257.57c0.95,-1.01 1.67,-2.21 2.11,-3.53c0.44,-1.32 0.59,-2.71 0.43,-4.09c-0.17,-1.38 -0.63,-2.71 -1.36,-3.89c-0.72,-1.18 -1.7,-2.19 -2.86,-2.95l4.05,-21.33l-12.36,-5.62l-5.3,30.19c-1.15,2.04 -1.52,4.42 -1.03,6.71c0.49,2.28 1.8,4.31 3.69,5.69c1.88,1.39 4.21,2.03 6.54,1.81c2.33,-0.21 4.49,-1.28 6.09,-2.99z" fill="#FFB7B7" id="svg_19"/>
   <path d="m224.2,90.06l-2.49,-1.33c0,0 -13.46,5.08 -12.52,8.84c0.94,3.75 -7.5,135.1 -4.69,139.79c2.81,4.7 25.33,0.94 25.33,0.94l-5.63,-148.24z" fill="#0000ff" id="svg_20" transform="matrix(1 0 0 1 0 0)"/>
   <path d="m331.31,248.73c-1.08,-0.87 -1.97,-1.96 -2.58,-3.2c-0.62,-1.25 -0.96,-2.61 -0.99,-4c-0.03,-1.39 0.25,-2.77 0.8,-4.04c0.56,-1.27 1.39,-2.4 2.44,-3.32l-6.97,-20.56l11.46,-7.28l9.43,29.17c1.42,1.86 2.11,4.17 1.95,6.5c-0.17,2.33 -1.19,4.52 -2.87,6.15c-1.67,1.63 -3.89,2.59 -6.22,2.7c-2.34,0.11 -4.63,-0.65 -6.45,-2.12z" fill="#FFB7B7" id="svg_21"/>
   <path d="m320.31,230.81c0,0 22.82,0.6 24.96,-4.44c2.14,-5.03 -24.4,-133.95 -23.99,-137.8c0.41,-3.85 -13.62,-7.02 -13.62,-7.02l-2.28,1.66l14.93,147.6z" fill="#0000ff" id="svg_22"/>
   <path d="m421.17,236.61l-14.13,-69.23l-6.2,-51.13l-13.75,8.89l1.9,56.35l21.94,58.38c-0.7,1.35 -0.99,2.87 -0.83,4.38c0.16,1.51 0.77,2.93 1.74,4.09c0.98,1.17 2.28,2.01 3.73,2.44c1.46,0.42 3.01,0.4 4.46,-0.06c1.44,-0.46 2.72,-1.34 3.66,-2.53c0.95,-1.19 1.52,-2.63 1.64,-4.14c0.12,-1.52 -0.21,-3.03 -0.95,-4.36c-0.74,-1.32 -1.86,-2.39 -3.21,-3.08z" fill="#FFB7B7" id="svg_23"/>
   <path d="m289.03,241.96l3.91,-70.55l-1.29,-51.49l18.17,6.8l3.04,56.03l-13.22,60.95c0.89,1.23 1.4,2.69 1.46,4.21c0.05,1.52 -0.34,3.02 -1.14,4.31c-0.79,1.29 -1.95,2.31 -3.33,2.94c-1.38,0.63 -2.92,0.84 -4.42,0.59c-1.49,-0.24 -2.88,-0.93 -3.99,-1.97c-1.11,-1.03 -1.88,-2.38 -2.22,-3.85c-0.34,-1.48 -0.24,-3.03 0.3,-4.45c0.54,-1.42 1.49,-2.64 2.73,-3.52z" fill="#FFB7B7" id="svg_24"/>
   <path d="m327.1,447.07l9.29,0l4.42,-35.83l-13.71,0.01l0,35.82z" fill="#FFB7B7" id="svg_25"/>
   <path d="m324.73,444.04l18.29,0c3.1,0 6.06,1.22 8.25,3.41c2.18,2.19 3.41,5.15 3.41,8.24l0,0.38l-29.95,0l0,-12.03z" fill="#2F2E41" id="svg_26"/>
   <path d="m362.28,442.96l9.18,1.42l9.85,-34.73l-13.55,-2.09l-5.48,35.4z" fill="#FFB7B7" id="svg_27"/>
   <path d="m360.4,439.6l18.08,2.8c3.06,0.47 5.8,2.14 7.62,4.63c1.83,2.5 2.59,5.61 2.12,8.67l-0.06,0.37l-29.6,-4.57l1.84,-11.9z" fill="#2F2E41" id="svg_28"/>
   <path d="m324.37,436.37l-0.05,-0.26l-33.62,-181.79c-2.67,-14.6 -0.54,-29.66 6.07,-42.95l20.35,-40.7l60.73,8.23l7.16,51.82l25.54,98.85l-0.02,0.08l-32.72,103.95l-21.45,1.41l19,-92.78l-34.79,-79.01l2.46,171.74l-18.66,1.41z" fill="#2F2E41" id="svg_29"/>
   <path d="m379.26,185.53l-0.4,-0.63c-0.07,-0.11 -7.45,-11.22 -27.52,-3.81c-20.49,7.58 -36.37,-7.05 -36.53,-7.2l-0.08,-0.07l-4.64,-41.37l-5.48,-33.57l17.44,-3.06l8.58,-5.15l34.09,-0.6l8.97,7.05l14.73,1.61l1.35,30.59l-0.01,0.04l-10.5,56.17z" fill="#7f3f00" id="svg_30" transform="matrix(1 0 0 1 0 0)"/>
   <path d="m384.15,132.28l0,-26.2l4.14,-7.56l0.17,0c3.26,0.12 6.34,1.52 8.58,3.9c4.16,4.23 6.05,11.28 5.61,20.96l-0.01,0.18l-18.49,8.72z" fill="#7f3f00" id="svg_31" transform="matrix(1 0 0 1 0 0)"/>
   <path d="m311.95,129.43l-21.11,-2.53l-0.02,-0.24c-0.71,-10.53 1.12,-18.34 5.47,-23.23c2.18,-2.61 5.27,-4.29 8.65,-4.71l0.12,0l5.71,5.19l1.18,25.52z" fill="#7f3f00" id="svg_32" transform="matrix(1 0 0 1 0 0)"/>
   <path d="m372.7,79l-55.4,0c-1.14,0 -2.23,-0.45 -3.04,-1.25c-0.81,-0.8 -1.26,-1.89 -1.26,-3.02l0,-19.91c-0.01,-4.18 0.81,-8.31 2.42,-12.17c1.6,-3.86 3.96,-7.37 6.93,-10.33c2.98,-2.95 6.51,-5.3 10.39,-6.9c3.89,-1.6 8.05,-2.42 12.26,-2.42c4.21,0 8.37,0.82 12.26,2.42c3.88,1.6 7.41,3.95 10.39,6.9c2.97,2.96 5.33,6.47 6.93,10.33c1.61,3.86 2.43,7.99 2.42,12.17l0,19.91c0,1.13 -0.45,2.22 -1.26,3.02c-0.81,0.8 -1.9,1.25 -3.04,1.25z" fill="#6A2904" id="svg_33"/>
   <path d="m346.58,79.31c12.99,0 23.52,-10.53 23.52,-23.52c0,-12.99 -10.53,-23.53 -23.52,-23.53c-12.99,0 -23.53,10.54 -23.53,23.53c0,12.99 10.54,23.52 23.53,23.52z" fill="#FFB7B7" id="svg_34"/>
   <path d="m368.94,56.52l-31.06,0c-0.58,0 -1.15,-0.21 -1.58,-0.6c-0.44,-0.38 -0.72,-0.92 -0.8,-1.5l-0.4,-3.21c-0.04,-0.31 -0.17,-0.6 -0.39,-0.82c-0.22,-0.23 -0.5,-0.37 -0.81,-0.42c-0.31,-0.05 -0.62,0 -0.9,0.15c-0.27,0.14 -0.49,0.38 -0.62,0.66l-2.04,4.36c-0.2,0.41 -0.5,0.76 -0.89,1.01c-0.38,0.24 -0.83,0.37 -1.28,0.37l-4.72,0c-0.33,0 -0.66,-0.07 -0.97,-0.2c-0.3,-0.14 -0.58,-0.33 -0.8,-0.58c-0.23,-0.25 -0.4,-0.54 -0.5,-0.86c-0.11,-0.31 -0.14,-0.65 -0.11,-0.98l1.86,-19.43c0.04,-0.42 0.19,-0.81 0.43,-1.16c0.23,-0.34 0.56,-0.61 0.94,-0.79c14.22,-6.64 28.64,-6.63 42.87,0.03c0.36,0.16 0.67,0.42 0.91,0.74c0.23,0.32 0.39,0.7 0.44,1.09l2.79,19.41c0.05,0.34 0.02,0.68 -0.07,1.01c-0.1,0.33 -0.27,0.64 -0.49,0.9c-0.23,0.26 -0.5,0.46 -0.82,0.61c-0.31,0.14 -0.65,0.21 -0.99,0.21z" fill="#6A2904" id="svg_35"/>
   <path d="m381.72,238.81c1.18,-0.42 2.26,-1.09 3.16,-1.97c0.89,-0.88 1.58,-1.95 2.02,-3.13c0.44,-1.18 0.61,-2.43 0.52,-3.69c-0.11,-1.25 -0.48,-2.46 -1.1,-3.55l20.14,-22.96l-15.72,-2.17l-16.71,22.13c-1.77,1.17 -3.05,2.94 -3.59,4.98c-0.55,2.04 -0.33,4.22 0.62,6.11c0.95,1.89 2.56,3.36 4.52,4.15c1.97,0.78 4.15,0.82 6.14,0.1z" fill="#FFB8B8" id="svg_36"/>
   <path d="m406,442.23l-14.04,0l-6.68,-54.16l20.72,0l0,54.16z" fill="#FFB8B8" id="svg_37"/>
   <path d="m409.58,455.85l-45.28,0l0,-0.58c0,-4.67 1.86,-9.15 5.16,-12.46c3.31,-3.31 7.79,-5.16 12.47,-5.16l0,0l27.65,0l0,18.2z" fill="#2F2E41" id="svg_38"/>
   <path d="m479.51,430.48l-13.41,4.17l-22.44,-49.75l19.79,-6.15l16.06,51.73z" fill="#FFB8B8" id="svg_39"/>
   <path d="m486.97,442.42l-43.25,13.43l-0.17,-0.55c-1.38,-4.46 -0.94,-9.3 1.24,-13.43c2.17,-4.14 5.9,-7.24 10.37,-8.63l0,0l26.41,-8.2l5.4,17.38z" fill="#2F2E41" id="svg_40"/>
   <path d="m395.25,192.51l-20.8,23.81l16.28,1.47l4.52,-25.28z" fill="#7f3f00" id="svg_41" transform="matrix(1 0 0 1 0 0)"/>
   <path d="m387.12,223.21c0,0 -7.23,3.61 -8.13,19.86c-0.9,16.26 2.71,58.7 2.71,58.7c0,0 -3.61,18.97 0,36.12c3.61,17.16 -3.61,79.47 0.91,79.47c4.51,0 27.99,2.71 28.89,0c0.9,-2.71 1.81,-43.35 1.81,-43.35c0,0 7.22,-20.77 0,-33.4c0,0 25.22,44.04 41.54,77.65c3.57,7.36 30.7,-0.9 26.18,-9.03c-4.51,-8.12 -15.35,-45.15 -15.35,-45.15c0,0 -8.12,-27.09 -22.57,-38.83l7.22,-57.79c0,0 15.35,-38.83 6.32,-44.25c-9.02,-5.42 -69.53,0 -69.53,0z" fill="#2F2E41" id="svg_42"/>
   <path d="m414.21,76.02c12.97,0 23.48,-10.52 23.48,-23.48c0,-12.97 -10.51,-23.48 -23.48,-23.48c-12.97,0 -23.48,10.51 -23.48,23.48c0,12.96 10.51,23.48 23.48,23.48z" fill="#FFB8B8" id="svg_43"/>
   <path d="m440.4,77.82l-29.19,17.16c0,0 -11.18,6.29 -15.35,17.16c-4.45,11.57 -1.86,27.87 0,31.6c3.61,7.23 -1.52,25.29 -1.52,25.29l-4.51,41.53c0,0 -16.26,15.35 -3.61,17.16c12.64,1.81 35.21,-0.9 48.76,0c13.54,0.91 28.9,2.71 24.38,-6.32c-4.51,-9.03 -9.93,-15.35 -4.51,-33.41c4.24,-14.13 4.05,-66.97 3.77,-89.29c-0.04,-3.06 -0.86,-6.07 -2.38,-8.72c-1.53,-2.66 -3.71,-4.88 -6.34,-6.46l-9.5,-5.7z" fill="#7f3f00" id="svg_44" transform="matrix(1 0 0 1 0 0)"/>
   <path d="m427.31,106.27l2.71,55.08l-26.26,53.17l-4.45,-1.7l27.09,-49.66l0.91,-56.89z" fill="black" id="svg_45" opacity="0.1"/>
   <path d="m457.1,173.09l0,-6.32l-30.7,50.57l30.7,-44.25z" fill="black" id="svg_46" opacity="0.1"/>
   <path d="m397.55,30.79l-3.88,-1.55c0,0 8.12,-8.94 19.4,-8.16l-3.17,-3.5c0,0 7.76,-3.11 14.82,5.05c3.71,4.29 8,9.33 10.68,15.01l4.16,0l-1.74,3.82l6.07,3.82l-6.23,-0.69c0.59,3.3 0.39,6.69 -0.59,9.9l0.17,3.02c0,0 -7.23,-11.19 -7.23,-12.74l0,3.89c0,0 -3.88,-3.5 -3.88,-5.83l-2.11,2.72l-1.06,-4.27l-13.06,4.27l2.12,-3.5l-8.12,1.17l3.18,-4.27c0,0 -9.18,5.05 -9.53,9.32c-0.35,4.27 -4.94,9.71 -4.94,9.71l-2.12,-3.88c0,0 -3.17,-17.49 7.06,-23.31z" fill="#252439" id="svg_47"/>
   <path d="m412.74,241.37c1.09,-0.63 2.03,-1.48 2.75,-2.51c0.73,-1.02 1.22,-2.2 1.44,-3.43c0.23,-1.24 0.18,-2.51 -0.15,-3.72c-0.32,-1.22 -0.9,-2.35 -1.71,-3.31l15.75,-26.16l-15.86,0.65l-12.51,24.75c-1.53,1.45 -2.48,3.42 -2.65,5.53c-0.18,2.11 0.43,4.21 1.69,5.9c1.27,1.69 3.12,2.86 5.19,3.28c2.07,0.43 4.23,0.08 6.06,-0.98z" fill="#FFB8B8" id="svg_48"/>
   <path d="m448.52,89.56l6.78,-1.35c0,0 20.32,14.9 13.99,44.7c-6.32,29.8 -34.31,74.95 -34.31,74.95c0,0 -6.32,8.13 -8.13,9.93c-1.8,1.81 -5.42,0 -3.61,2.71c1.81,2.71 -2.71,4.51 -2.71,4.51c0,0 -19.86,0 -18.06,-7.22c1.81,-7.22 32.51,-58.7 32.51,-58.7l-4.52,-47.86c0,0 -3.61,-23.47 18.06,-21.67z" fill="#7f3f00" id="svg_49" transform="matrix(1 0 0 1 0 0)"/>
   <path d="m765.8,461l-611,0c-0.26,0 -0.52,-0.26 -0.71,-0.73c-0.18,-0.47 -0.29,-1.11 -0.29,-1.77c0,-0.66 0.11,-1.3 0.29,-1.77c0.19,-0.47 0.45,-0.73 0.71,-0.73l611,0c0.27,0 0.52,0.26 0.71,0.73c0.19,0.47 0.29,1.11 0.29,1.77c0,0.66 -0.1,1.3 -0.29,1.77c-0.19,0.47 -0.44,0.73 -0.71,0.73z" fill="#218000" id="svg_50"/>
   <path d="m16.11,41.77l0,0.34l-9.43,0c-1.45,0 -2.84,0.58 -3.86,1.6c-1.02,1.03 -1.6,2.41 -1.6,3.86l0,19.98c0,1.44 0.58,2.83 1.6,3.86c1.02,1.02 2.41,1.59 3.86,1.59l51.72,0c1.45,0 2.84,-0.57 3.86,-1.59c1.03,-1.03 1.6,-2.42 1.6,-3.86l0,-19.98c0,-1.45 -0.57,-2.83 -1.6,-3.86c-1.02,-1.02 -2.41,-1.6 -3.86,-1.6l-35.58,0l0,-0.34l-6.71,0z" fill="#3F3D56" id="svg_51"/>
   <path d="m153.21,124.74c0.22,29.48 -18.62,25.02 -41.58,25.02c-22.97,0 -39.59,4.39 -41.59,-25.02c-3.18,-46.74 9.1,-81.74 41.59,-81.74c33.6,0 41.23,35 41.58,81.74z" fill="#ff007f" id="svg_52" transform="matrix(1 0 0 1 0 0)"/>
   <path d="m27.43,62.21c0.74,1.5 1.15,3.15 1.18,4.82c0.04,1.67 -0.29,3.34 -0.96,4.87c-0.68,1.53 -1.68,2.9 -2.94,4c-1.26,1.11 -2.75,1.92 -4.36,2.39l-2.09,40.65l-17.04,-12.54l4.6,-36.68c-0.6,-2.76 -0.18,-5.64 1.2,-8.1c1.38,-2.46 3.61,-4.33 6.27,-5.25c2.67,-0.93 5.58,-0.85 8.18,0.23c2.61,1.08 4.73,3.07 5.96,5.61z" fill="#FFB8B8" id="svg_53"/>
   <path d="m181.07,291.98c0.93,-1.4 1.54,-2.98 1.78,-4.64c0.25,-1.65 0.13,-3.35 -0.35,-4.95c-0.47,-1.61 -1.3,-3.09 -2.41,-4.34c-1.11,-1.25 -2.48,-2.25 -4.02,-2.91l3.02,-40.6l-18.48,10.3l-0.03,36.98c-0.95,2.65 -0.89,5.56 0.17,8.18c1.06,2.61 3.04,4.75 5.56,6c2.53,1.25 5.43,1.54 8.15,0.79c2.72,-0.74 5.07,-2.45 6.61,-4.81z" fill="#FFB8B8" id="svg_54"/>
   <path d="m95.98,487.41l13.97,0l6.65,-53.87l-20.62,0l0,53.87z" fill="#FFB8B8" id="svg_55"/>
   <path d="m92.42,482.85l27.51,0l0,0c2.3,0 4.58,0.45 6.71,1.33c2.12,0.88 4.06,2.17 5.68,3.8c1.63,1.63 2.92,3.56 3.8,5.69c0.88,2.13 1.34,4.4 1.34,6.71l0,0.57l-45.04,0l0,-18.1z" fill="#2F2E41" id="svg_56"/>
   <path d="m184.85,487.41l13.96,0l6.65,-53.87l-20.62,0l0.01,53.87z" fill="#FFB8B8" id="svg_57"/>
   <path d="m181.28,482.85l27.51,0l0,0c2.3,0 4.58,0.45 6.71,1.33c2.13,0.88 4.06,2.17 5.69,3.8c1.62,1.63 2.91,3.56 3.8,5.69c0.88,2.13 1.33,4.4 1.33,6.71l0,0.57l-45.04,0l0,-18.1z" fill="#2F2E41" id="svg_58"/>
   <path d="m176.87,269.61l-0.6,-0.11c-5.09,-0.92 -10.24,-1.86 -14.77,-2.83l-0.44,-0.1l-0.01,-0.45c-0.07,-20.65 -0.15,-41.3 -0.27,-62.13c-10.81,-21.8 -15.35,-46.17 -13.13,-70.4l0.03,-0.25l0.21,-0.15c1.97,-1.37 4.27,-2.19 6.66,-2.38c2.39,-0.18 4.79,0.28 6.95,1.32c2.11,1.16 3.91,2.8 5.26,4.79c1.35,1.99 2.2,4.28 2.49,6.67c4.11,22.44 8.37,45.67 13.13,68.57l0.02,0.08l-0.01,0.09c-1.76,18.67 -3.58,37.98 -5.45,56.66l-0.07,0.62z" fill="#7f3f00" id="svg_59"/>
   <path d="m167.77,468.21l-0.11,-0.53c-6.54,-30.9 -12.84,-56.07 -18.94,-80.41c-7.31,-29.17 -14.24,-56.81 -21.23,-92.58c0.96,45.11 3.19,77.51 5.75,114.76c1.16,16.82 2.36,34.22 3.57,54.52l0.04,0.62l-0.62,-0.02c-21.86,-0.56 -44.26,-1.91 -65.92,-3.21l-0.57,-0.04l0.04,-0.57c4.1,-60.44 5.39,-99.72 6.32,-128.39c1.98,-60.51 2.29,-69.81 24.83,-121.01c0.85,-1.95 5.95,-7.69 11.55,-6.81l44.34,6.9l0.08,0.39c1.25,6.3 7.46,25.43 16.06,51.9c18.37,56.58 46.13,142.1 54.8,193.07l0.1,0.58l-0.58,0.08c-12.6,1.79 -21.66,3.65 -30.43,5.46c-8.3,1.7 -16.87,3.47 -28.55,5.21l-0.53,0.08z" fill="#2F2E41" id="svg_60"/>
   <path d="m129.23,227.44c-11.84,0 -23.53,-4.11 -31.92,-12.11c-1.31,-0.76 -2.42,-1.82 -3.23,-3.11c-0.81,-1.28 -1.31,-2.73 -1.44,-4.24c-0.21,-1.39 -0.12,-2.8 0.27,-4.14c0.39,-1.35 1.07,-2.59 1.99,-3.65c-8.23,-9.95 -16.71,-20.24 -24.84,-30.71l-0.22,-0.29l0.26,-0.5c5.31,-10.15 10.81,-20.66 16.09,-31.03c0.37,-0.91 0.97,-1.7 1.75,-2.29c0.78,-0.59 1.7,-0.95 2.67,-1.06c0.84,-0.16 1.71,-0.15 2.55,0.04c0.83,0.19 1.62,0.54 2.32,1.05l0.01,-0.26c0.22,-5.25 0.44,-10.5 0.67,-15.48l0.02,-0.53l0.54,-0.02c10.15,-0.22 20.64,-0.45 30.95,-1.06l0.39,-0.03l5.12,11.41c8.3,-0.81 16.66,0.89 24,4.87l0.33,0.18l-0.04,0.38c-2.05,19.61 -1.61,39.39 1.34,58.88c-0.16,8.9 -0.34,18 -2.14,25.25l-0.05,0.21l-0.18,0.12c-8.06,5.35 -17.54,8.18 -27.21,8.12z" fill="#7f3f00" id="svg_61" transform="matrix(1 0 0 1 0 0)"/>
   <path d="m85.67,177.95l-0.68,-0.32c-7.96,-3.98 -15.93,-8.41 -23.65,-12.69l-1.06,-0.21c-20.32,-4.08 -31.5,-6.32 -49.83,-17.07l-0.14,-0.08l-0.08,-0.15c-9.17,-17.52 -11.73,-32.85 -9.44,-56.53l0.05,-0.47l0.47,-0.04c1.99,-0.16 5.23,-0.27 8.36,-0.37c3.04,-0.11 6.19,-0.21 8.12,-0.36l0.45,-0.04l0.14,0.43c2.4,7.41 4.44,14.33 6.6,21.66c2.22,7.52 4.51,15.31 7.31,23.95c10.23,2.94 37.66,2.06 46.19,0.9c2.55,-0.19 5.11,0.27 7.44,1.33c2.33,1.06 4.35,2.68 5.89,4.73l0.16,0.2l-0.05,0.25c-1.87,11.46 -4.03,22.99 -6.11,34.13l-0.14,0.75z" fill="#7f3f00" id="svg_62" transform="matrix(1 0 0 1 0 0)"/>
   <path d="m135.67,100.24c7.41,-13.56 2.42,-30.56 -11.13,-37.97c-13.56,-7.41 -30.57,-2.43 -37.98,11.13c-7.41,13.56 -2.43,30.56 11.13,37.97c13.56,7.42 30.56,2.43 37.98,-11.13z" fill="#FFB8B8" id="svg_63"/>
   <path d="m79.16,85.15l11.06,0l4.89,-13.67l0.97,13.67l5.29,0l2.85,-7.97l0.57,7.97l39.3,0c0,-7.85 -3.12,-15.39 -8.67,-20.94c-5.56,-5.56 -13.09,-8.68 -20.95,-8.68l-5.69,0c-7.86,0 -15.39,3.12 -20.95,8.68c-5.55,5.55 -8.67,13.09 -8.67,20.94z" fill="#ff007f" id="svg_64" transform="matrix(1 0 0 1 0 0)"/>
  </g>
 </g>
</svg>