<svg width="767" height="501" viewBox="0 0 767 501" fill="none" xmlns="http://www.w3.org/2000/svg">
<g clip-path="url(#clip0_101_2)">
<path d="M663.499 412.233C663.101 427.103 660.61 441.843 656.099 456.018C655.999 456.347 655.888 456.671 655.78 457H628.167C628.196 456.705 628.226 456.376 628.255 456.018C630.096 434.852 619.578 307.565 606.886 285.535C607.998 287.322 665.64 344.979 663.499 412.233Z" fill="#31A707"/>
<path d="M661.427 456.018C661.196 456.347 660.956 456.676 660.71 457H639.994C640.151 456.72 640.333 456.391 640.544 456.018C643.966 449.842 654.095 431.376 663.497 412.233C673.597 391.661 682.871 370.309 682.09 362.581C682.332 364.323 689.324 417.457 661.427 456.018Z" fill="#51FE14"/>
<path d="M730.922 432.458C730.704 440.61 729.338 448.691 726.866 456.462C726.811 456.642 726.75 456.82 726.691 457H711.553C711.569 456.838 711.585 456.658 711.601 456.462C712.61 444.858 706.844 375.077 699.886 363C700.496 363.98 732.096 395.588 730.922 432.458Z" fill="#31A707"/>
<path d="M729.786 456.462C729.66 456.642 729.528 456.822 729.393 457H718.036C718.123 456.846 718.222 456.666 718.338 456.462C720.214 453.076 725.767 442.952 730.921 432.458C736.458 421.18 741.542 409.475 741.114 405.238C741.247 406.193 745.08 435.322 729.786 456.462Z" fill="#51FE14"/>
<path d="M587.922 432.458C587.704 440.61 586.338 448.691 583.866 456.462C583.811 456.642 583.75 456.82 583.691 457H568.553C568.569 456.838 568.585 456.658 568.601 456.462C569.61 444.858 563.844 375.077 556.886 363C557.496 363.98 589.096 395.588 587.922 432.458Z" fill="#31A707"/>
<path d="M586.786 456.462C586.66 456.642 586.528 456.822 586.393 457H575.036C575.123 456.846 575.222 456.666 575.338 456.462C577.214 453.076 582.767 442.952 587.921 432.458C593.458 421.18 598.542 409.475 598.114 405.238C598.247 406.193 602.08 435.322 586.786 456.462Z" fill="#51FE14"/>
<path d="M314.574 442.1H329.13L336.055 385.955L314.572 385.956L314.574 442.1Z" fill="#FFB7B7"/>
<path d="M310.861 437.348L339.527 437.347H339.529C344.374 437.347 349.02 439.272 352.446 442.697C355.872 446.123 357.797 450.77 357.797 455.615V456.208L310.862 456.21L310.861 437.348Z" fill="#2F2E41"/>
<path d="M235.763 442.1H250.319L257.243 385.955L235.76 385.956L235.763 442.1Z" fill="#FFB7B7"/>
<path d="M232.05 437.348L260.716 437.347H260.717C265.562 437.347 270.208 439.272 273.634 442.697C277.06 446.123 278.985 450.77 278.985 455.615V456.208L232.05 456.21L232.05 437.348Z" fill="#2F2E41"/>
<path d="M229.832 187.638V335.879L233.585 431.579H264.547L274.867 251.438L295.508 325.559L308.644 429.702L346.173 427.826L320.841 187.638H229.832Z" fill="#2F2E41"/>
<path d="M265.824 54.4087C278.261 54.4087 288.342 44.3272 288.342 31.8911C288.342 19.455 278.261 9.37347 265.824 9.37347C253.388 9.37347 243.307 19.455 243.307 31.8911C243.307 44.3272 253.388 54.4087 265.824 54.4087Z" fill="#FFB8B8"/>
<path d="M256.468 60.275L250.473 66.606L244.844 193.268L311.458 191.391L295.508 80.68L281.435 67.193L274.294 60.275H256.468Z" fill="#715AFF"/>
<path d="M245.782 74.1116L250.838 65.9048L252.349 83.4939C252.349 83.4939 264.546 122.9 263.608 157.614C262.67 192.329 268.299 273.955 260.794 274.894C253.288 275.832 221.388 277.708 221.388 271.141C221.388 264.573 219.511 90.0615 219.511 90.0615L245.782 74.1116Z" fill="#3F3D56"/>
<path d="M279.924 65.9048L292.693 75.988L320.84 86.3086C320.84 86.3086 320.84 206.403 326.47 234.549C332.099 262.696 342.42 265.511 329.285 266.449C316.149 267.388 317.088 262.697 317.088 262.697C317.088 262.697 326.47 215.785 314.273 206.402C302.076 197.02 278.62 142.603 280.496 112.579C282.373 82.5557 278.047 65.9048 279.924 65.9048Z" fill="#3F3D56"/>
<path d="M244.522 38.9361C244.522 38.9361 246.435 35.5762 245.99 24.3522C245.545 13.1281 262.637 19.4763 276.919 18.4056C291.2 17.3348 288.177 37.1445 288.177 37.1445C288.177 37.1445 289.207 35.9669 291.413 26.4062C293.619 16.8455 288.611 7.31788 288.611 7.31788C287.136 -2.72862 279.186 0.491299 279.186 0.491299C283.014 1.98174 282.279 5.16864 282.279 5.16864C279.038 -0.513364 271.088 2.70657 271.088 2.70657C260.485 -3.94705 249.739 4.81494 249.739 4.81494C236.93 7.72194 244.442 17.9084 244.442 17.9084C231.561 24.4181 244.522 38.9361 244.522 38.9361Z" fill="#2F2E41"/>
<path d="M221.419 257.574C222.374 256.565 223.095 255.36 223.533 254.042C223.971 252.724 224.115 251.327 223.955 249.947C223.794 248.568 223.333 247.241 222.604 246.059C221.875 244.877 220.895 243.869 219.735 243.107L223.791 221.783L211.434 216.158L206.129 246.351C204.977 248.386 204.612 250.772 205.102 253.058C205.593 255.344 206.904 257.371 208.789 258.754C210.674 260.138 213.001 260.782 215.328 260.564C217.656 260.347 219.823 259.283 221.419 257.574Z" fill="#FFB7B7"/>
<path d="M224.202 90.0616L221.711 88.7259C221.711 88.7259 208.252 93.8145 209.191 97.5675C210.129 101.321 201.685 232.673 204.499 237.364C207.314 242.055 229.832 238.302 229.832 238.302L224.202 90.0616Z" fill="#3F3D56"/>
<path d="M331.31 248.731C330.225 247.864 329.344 246.77 328.727 245.525C328.111 244.281 327.775 242.916 327.744 241.528C327.712 240.14 327.985 238.761 328.543 237.49C329.102 236.219 329.932 235.085 330.976 234.169L324.009 213.612L335.469 206.331L344.901 235.5C346.323 237.356 347.015 239.669 346.845 242.001C346.676 244.332 345.657 246.521 343.982 248.152C342.307 249.783 340.091 250.742 337.756 250.849C335.42 250.956 333.127 250.202 331.31 248.731Z" fill="#FFB7B7"/>
<path d="M320.312 230.808C320.312 230.808 343.132 231.41 345.271 226.374C347.409 221.339 320.872 92.4177 321.282 88.571C321.692 84.7244 307.659 81.5469 307.659 81.5469L305.376 83.2144L320.312 230.808Z" fill="#3F3D56"/>
<path d="M421.171 236.609L407.043 167.38L400.837 116.247L387.087 125.142L388.987 181.49L410.932 239.873C410.227 241.216 409.937 242.739 410.1 244.247C410.262 245.756 410.869 247.182 411.844 248.345C412.819 249.507 414.118 250.353 415.575 250.776C417.033 251.198 418.583 251.178 420.028 250.717C421.474 250.256 422.75 249.376 423.694 248.188C424.638 247 425.207 245.559 425.33 244.046C425.453 242.534 425.123 241.02 424.382 239.695C423.642 238.371 422.524 237.297 421.171 236.609Z" fill="#FFB7B7"/>
<path d="M289.031 241.962L292.942 171.414L291.646 119.923L309.824 126.724L312.858 182.749L299.636 243.702C300.529 244.928 301.037 246.393 301.096 247.909C301.155 249.425 300.761 250.925 299.965 252.216C299.17 253.508 298.008 254.534 296.628 255.164C295.247 255.794 293.711 255.999 292.214 255.754C290.716 255.508 289.326 254.823 288.219 253.785C287.112 252.747 286.339 251.403 285.998 249.925C285.657 248.447 285.763 246.9 286.303 245.482C286.843 244.064 287.793 242.839 289.031 241.962Z" fill="#FFB7B7"/>
<path d="M327.101 447.07H336.389L340.808 411.244L327.1 411.245L327.101 447.07Z" fill="#FFB7B7"/>
<path d="M324.732 444.038L343.023 444.037C346.115 444.037 349.081 445.265 351.267 447.451C353.453 449.637 354.681 452.602 354.681 455.694V456.072L324.732 456.073L324.732 444.038Z" fill="#2F2E41"/>
<path d="M362.281 442.96L371.46 444.38L381.305 409.651L367.757 407.556L362.281 442.96Z" fill="#FFB7B7"/>
<path d="M360.403 439.601L378.48 442.397C381.535 442.87 384.278 444.537 386.104 447.032C387.93 449.526 388.691 452.644 388.218 455.699L388.16 456.073L358.564 451.495L360.403 439.601Z" fill="#2F2E41"/>
<path d="M324.373 436.374L324.325 436.114L290.7 254.318C288.031 239.723 290.16 224.657 296.769 211.373L317.12 170.671L377.847 178.898L385.014 230.719L410.554 329.575L410.528 329.655L377.806 433.596L356.361 435.007L375.358 342.225L340.574 263.219L343.027 434.96L324.373 436.374Z" fill="#2F2E41"/>
<path d="M379.261 185.53L378.86 184.902C378.788 184.788 371.411 173.675 351.338 181.095C330.847 188.672 314.97 174.039 314.811 173.89L314.733 173.816L310.092 132.454L304.614 98.876L322.053 95.8166L330.626 90.6728L364.718 90.0658L373.69 97.1219L388.419 98.7271L389.768 129.323L389.761 129.356L379.261 185.53Z" fill="#FFBB00"/>
<path d="M384.147 132.282V106.084L388.289 98.5248L388.457 98.5197C391.718 98.6413 394.8 100.041 397.036 102.417C401.202 106.65 403.089 113.703 402.646 123.379L402.637 123.556L384.147 132.282Z" fill="#FFBB00"/>
<path d="M311.952 129.434L290.841 126.901L290.825 126.658C290.105 116.13 291.942 108.316 296.286 103.431C298.467 100.819 301.56 99.1351 304.937 98.7211L305.059 98.7154L310.774 103.911L311.952 129.434Z" fill="#FFBB00"/>
<path d="M372.701 79H317.298C316.159 78.9987 315.066 78.5487 314.26 77.7488C313.455 76.9488 313.001 75.8642 313 74.7329V54.8196C312.993 50.6435 313.815 46.507 315.42 42.6468C317.025 38.7866 319.381 35.2784 322.354 32.323C325.326 29.3676 328.856 27.0229 332.742 25.4232C336.628 23.8234 340.793 23 345 23C349.207 23 353.372 23.8234 357.258 25.4232C361.144 27.0229 364.674 29.3676 367.646 32.323C370.619 35.2784 372.975 38.7866 374.58 42.6468C376.185 46.507 377.007 50.6435 377 54.8196V74.7329C376.999 75.8642 376.545 76.9488 375.74 77.7488C374.934 78.5488 373.841 78.9987 372.701 79Z" fill="#6A2904"/>
<path d="M346.578 79.3117C359.57 79.3117 370.102 68.7795 370.102 55.7874C370.102 42.7952 359.57 32.2631 346.578 32.2631C333.586 32.2631 323.054 42.7952 323.054 55.7874C323.054 68.7795 333.586 79.3117 346.578 79.3117Z" fill="#FFB7B7"/>
<path d="M368.938 56.5227H337.88C337.297 56.5219 336.734 56.3084 336.296 55.9222C335.859 55.536 335.577 55.0036 335.505 54.4247L335.102 51.208C335.064 50.8987 334.926 50.6104 334.709 50.3865C334.492 50.1626 334.208 50.0153 333.9 49.9668C333.592 49.9184 333.277 49.9714 333.002 50.1178C332.727 50.2643 332.507 50.4962 332.375 50.7787L330.339 55.1411C330.145 55.5533 329.838 55.9019 329.454 56.1465C329.07 56.3911 328.624 56.5215 328.169 56.5226H323.451C323.118 56.5227 322.788 56.453 322.482 56.318C322.177 56.1831 321.904 55.9858 321.679 55.7388C321.455 55.4918 321.284 55.2007 321.179 54.884C321.074 54.5673 321.036 54.2321 321.068 53.8999L322.928 34.4701C322.968 34.0544 323.115 33.6562 323.355 33.3143C323.594 32.9725 323.919 32.6988 324.296 32.5199C338.52 25.8799 352.943 25.8883 367.167 32.5451C367.528 32.7147 367.841 32.9716 368.077 33.2925C368.314 33.6135 368.467 33.9883 368.522 34.3831L371.308 53.7877C371.357 54.1275 371.333 54.4738 371.236 54.8032C371.139 55.1325 370.973 55.4372 370.748 55.6966C370.523 55.956 370.245 56.164 369.933 56.3065C369.621 56.4491 369.282 56.5228 368.938 56.5227Z" fill="#6A2904"/>
<path d="M381.717 238.809C382.901 238.39 383.979 237.717 384.875 236.836C385.77 235.955 386.462 234.889 386.901 233.712C387.34 232.535 387.515 231.276 387.415 230.024C387.315 228.772 386.941 227.557 386.321 226.465L406.456 203.512L390.738 201.343L374.027 223.473C372.261 224.637 370.984 226.408 370.437 228.451C369.89 230.494 370.112 232.666 371.06 234.557C372.008 236.447 373.616 237.924 375.58 238.708C377.545 239.492 379.728 239.528 381.717 238.809Z" fill="#FFB8B8"/>
<path d="M406 442.234L391.957 442.233L385.276 388.067L406.003 388.068L406 442.234Z" fill="#FFB8B8"/>
<path d="M409.581 455.847L364.301 455.845V455.272C364.301 450.598 366.158 446.115 369.463 442.81C372.768 439.505 377.251 437.648 381.925 437.648H381.926L409.582 437.649L409.581 455.847Z" fill="#2F2E41"/>
<path d="M479.511 430.482L466.099 434.646L443.656 384.897L463.451 378.752L479.511 430.482Z" fill="#FFB8B8"/>
<path d="M486.968 442.42L443.723 455.847L443.554 455.3C442.168 450.836 442.612 446.004 444.788 441.867C446.965 437.731 450.695 434.628 455.159 433.242L455.16 433.241L481.572 425.041L486.968 442.42Z" fill="#2F2E41"/>
<path d="M395.246 192.506L374.448 216.325L390.73 217.79L395.246 192.506Z" fill="#4B8AE9"/>
<path d="M387.119 223.208C387.119 223.208 379.895 226.82 378.992 243.075C378.089 259.33 381.701 301.775 381.701 301.775C381.701 301.775 378.09 320.738 381.701 337.895C385.313 355.052 378.09 417.358 382.605 417.358C387.119 417.358 410.598 420.067 411.501 417.358C412.404 414.648 413.307 374.013 413.307 374.013C413.307 374.013 420.531 353.243 413.307 340.605C413.307 340.605 438.531 384.649 454.846 418.264C458.416 425.62 485.548 417.36 481.033 409.233C476.518 401.106 465.682 364.082 465.682 364.082C465.682 364.082 457.555 336.991 443.107 325.252L450.332 267.459C450.332 267.459 465.683 228.629 456.654 223.211C447.625 217.793 387.119 223.208 387.119 223.208Z" fill="#2F2E41"/>
<path d="M414.209 76.0152C427.176 76.0152 437.688 65.5037 437.688 52.537C437.688 39.5703 427.176 29.0588 414.209 29.0588C401.243 29.0588 390.731 39.5703 390.731 52.537C390.731 65.5037 401.243 76.0152 414.209 76.0152Z" fill="#FFB8B8"/>
<path d="M440.397 77.8215L411.209 94.9786C411.209 94.9786 400.033 101.272 395.859 112.136C391.409 123.713 393.995 140.014 395.859 143.741C399.47 150.966 394.344 169.026 394.344 169.026L389.829 210.564C389.829 210.564 373.575 225.915 386.217 227.721C398.859 229.528 421.434 226.818 434.98 227.721C448.525 228.625 463.876 230.431 459.361 221.399C454.846 212.366 449.428 206.047 454.846 187.99C459.086 173.858 458.902 121.017 458.622 98.7014C458.584 95.6369 457.762 92.6333 456.235 89.9761C454.707 87.319 452.526 85.0967 449.897 83.5206L440.397 77.8215Z" fill="#4B6DE9"/>
<path opacity="0.1" d="M427.307 106.267L430.016 161.351L403.762 214.517L399.31 212.823L426.4 163.157L427.307 106.267Z" fill="black"/>
<path opacity="0.1" d="M457.103 173.09V166.767L426.404 217.337L457.103 173.09Z" fill="black"/>
<path d="M397.546 30.7873L393.668 29.2357C393.668 29.2357 401.785 20.3008 413.075 21.0775L409.899 17.5811C409.899 17.5811 417.661 14.4735 424.719 22.6308C428.429 26.9193 432.721 31.9605 435.399 37.6382H439.556L437.822 41.4584L443.893 45.2786L437.661 44.595C438.251 47.893 438.049 51.2841 437.072 54.4886L437.242 57.5082C437.242 57.5082 430.015 46.3244 430.015 44.7727V48.6579C430.015 48.6579 426.133 45.1615 426.133 42.8306L424.016 45.5503L422.957 41.2781L409.901 45.5503L412.017 42.0522L403.9 43.2177L407.076 38.9455C407.076 38.9455 397.902 43.9952 397.549 48.2691C397.196 52.543 392.609 57.9806 392.609 57.9806L390.492 54.0955C390.492 54.0955 387.317 36.6146 397.546 30.7873Z" fill="#252439"/>
<path d="M412.736 241.365C413.827 240.742 414.768 239.888 415.493 238.862C416.218 237.836 416.709 236.664 416.933 235.428C417.156 234.192 417.105 232.922 416.784 231.707C416.463 230.493 415.88 229.364 415.075 228.399L430.816 202.236L414.963 202.892L402.446 227.636C400.915 229.095 399.972 231.065 399.797 233.173C399.621 235.28 400.225 237.379 401.493 239.071C402.762 240.763 404.607 241.931 406.679 242.354C408.751 242.777 410.906 242.425 412.736 241.365Z" fill="#FFB8B8"/>
<path d="M448.525 89.5623L455.298 88.2081C455.298 88.2081 475.615 103.108 469.294 132.907C462.973 162.706 434.98 207.857 434.98 207.857C434.98 207.857 428.657 215.985 426.852 217.79C425.048 219.596 421.434 217.79 423.241 220.5C425.047 223.209 420.531 225.015 420.531 225.015C420.531 225.015 400.665 225.015 402.471 217.79C404.277 210.566 434.98 159.09 434.98 159.09L430.465 111.231C430.465 111.231 426.852 87.7561 448.525 89.5623Z" fill="#4B8AE9"/>
<path d="M765.802 461H154.802C154.537 461 154.282 460.737 154.095 460.268C153.907 459.799 153.802 459.163 153.802 458.5C153.802 457.837 153.907 457.201 154.095 456.732C154.282 456.263 154.537 456 154.802 456H765.802C766.067 456 766.322 456.263 766.509 456.732C766.697 457.201 766.802 457.837 766.802 458.5C766.802 459.163 766.697 459.799 766.509 460.268C766.322 460.737 766.067 461 765.802 461Z" fill="#218000"/>
<path d="M16.1069 41.7699V42.1141H6.67838C5.23109 42.1141 3.84307 42.689 2.81969 43.7124C1.7963 44.7358 1.22137 46.1238 1.22137 47.5711V67.5467C1.22137 68.994 1.7963 70.382 2.81969 71.4054C3.84307 72.4288 5.23109 73.0037 6.67838 73.0037H58.404C59.8513 73.0037 61.2393 72.4288 62.2626 71.4054C63.286 70.382 63.861 68.994 63.861 67.5467V47.5711C63.861 46.1238 63.286 44.7358 62.2626 43.7124C61.2393 42.689 59.8513 42.1141 58.404 42.1141H22.8183V41.7699L16.1069 41.7699Z" fill="#3F3D56"/>
<path d="M153.208 124.738C153.427 154.218 134.591 149.759 111.625 149.759C88.6598 149.759 72.0449 154.15 70.0426 124.738C66.861 78 79.1366 43 111.625 43C145.233 43 152.861 78 153.208 124.738Z" fill="#97522B"/>
<path d="M27.4312 62.2084C28.1732 63.7098 28.5771 65.3557 28.6143 67.0301C28.6515 68.7045 28.3211 70.3666 27.6464 71.8995C26.9717 73.4324 25.9691 74.7987 24.7093 75.9022C23.4494 77.0057 21.9629 77.8196 20.3545 78.2864L18.259 118.943L1.22076 106.403L5.82285 69.7172C5.21766 66.9631 5.64372 64.0828 7.02031 61.6219C8.3969 59.161 10.6284 57.2906 13.2919 56.365C15.9554 55.4395 18.8659 55.5231 21.4718 56.6001C24.0778 57.677 26.1982 59.6726 27.4312 62.2084Z" fill="#FFB8B8"/>
<path d="M181.074 291.977C181.999 290.58 182.606 288.998 182.853 287.341C183.099 285.685 182.98 283.994 182.503 282.389C182.026 280.784 181.203 279.302 180.091 278.049C178.98 276.797 177.607 275.803 176.07 275.138L179.09 234.539L160.614 244.843L160.578 281.817C159.632 284.473 159.694 287.384 160.751 289.998C161.808 292.612 163.787 294.748 166.313 296C168.84 297.253 171.738 297.535 174.458 296.793C177.179 296.052 179.533 294.338 181.074 291.977Z" fill="#FFB8B8"/>
<path d="M95.985 487.409L109.952 487.408L116.596 433.535L95.982 433.536L95.985 487.409Z" fill="#FFB8B8"/>
<path d="M92.4219 482.849L119.928 482.848H119.929C122.231 482.848 124.51 483.301 126.637 484.182C128.764 485.063 130.696 486.354 132.324 487.982C133.952 489.609 135.243 491.542 136.124 493.669C137.005 495.795 137.458 498.075 137.458 500.377V500.946L92.4228 500.948L92.4219 482.849Z" fill="#2F2E41"/>
<path d="M184.846 487.409L198.813 487.408L205.458 433.535L184.844 433.536L184.846 487.409Z" fill="#FFB8B8"/>
<path d="M181.284 482.849L208.79 482.848H208.791C211.093 482.848 213.372 483.301 215.499 484.182C217.626 485.063 219.558 486.354 221.186 487.982C222.813 489.609 224.105 491.542 224.985 493.669C225.866 495.795 226.32 498.075 226.32 500.377V500.946L181.284 500.948L181.284 482.849Z" fill="#2F2E41"/>
<path d="M176.874 269.608L176.267 269.498C171.18 268.577 166.031 267.645 161.504 266.672L161.056 266.575L161.054 266.117C160.976 245.467 160.898 224.82 160.784 203.986C149.971 182.191 145.425 157.821 147.653 133.593L147.679 133.337L147.889 133.187C149.86 131.818 152.159 130.999 154.551 130.814C156.943 130.629 159.341 131.085 161.499 132.134C163.61 133.288 165.414 134.93 166.761 136.922C168.109 138.915 168.96 141.201 169.245 143.589C173.362 166.027 177.624 189.263 182.378 212.159L182.395 212.243L182.387 212.328C180.626 231.001 178.805 250.311 176.936 268.994L176.874 269.608Z" fill="#FFBB00"/>
<path d="M167.769 468.208L167.658 467.683C161.124 436.777 154.817 411.608 148.717 387.269C141.407 358.1 134.48 330.46 127.487 294.691C128.448 339.798 130.678 372.204 133.242 409.453C134.4 426.273 135.597 443.665 136.812 463.97L136.849 464.589L136.229 464.574C114.37 464.014 91.9736 462.663 70.3147 461.358L69.7417 461.324L69.7807 460.751C73.8813 400.309 75.1662 361.034 76.1044 332.356C78.0839 271.852 78.3882 262.552 100.926 211.347C101.78 209.404 106.877 203.665 112.48 204.539L156.823 211.44L156.9 211.831C158.152 218.133 164.361 237.258 172.955 263.728C191.326 320.313 219.09 405.826 227.763 456.799L227.861 457.377L227.281 457.459C214.684 459.249 205.617 461.114 196.849 462.916C188.554 464.623 179.976 466.386 168.3 468.128L167.769 468.208Z" fill="#2F2E41"/>
<path d="M129.23 227.435C117.395 227.437 105.697 223.33 97.3114 215.334C96.0008 214.572 94.8925 213.506 94.0799 212.225C93.2673 210.945 92.7742 209.489 92.642 207.978C92.4269 206.594 92.5172 205.18 92.9066 203.835C93.2961 202.49 93.9752 201.246 94.8963 200.191C86.6746 190.24 78.1858 179.954 70.06 169.48L69.8355 169.191L70.0956 168.695C75.4119 158.537 80.9093 148.035 86.1887 137.657C86.5561 136.752 87.1609 135.964 87.9393 135.374C88.7176 134.785 89.6407 134.417 90.611 134.308C91.4539 134.149 92.3205 134.163 93.1576 134.35C93.9948 134.537 94.785 134.893 95.4799 135.396L95.4904 135.144C95.711 129.89 95.9318 124.637 96.1585 119.657L96.1827 119.125L96.7151 119.113C106.866 118.889 117.362 118.657 127.673 118.046L128.065 118.023L133.179 129.43C141.484 128.623 149.841 130.319 157.175 134.3L157.513 134.481L157.474 134.861C155.417 154.465 155.864 174.252 158.805 193.743C158.645 202.642 158.474 211.739 156.668 218.989L156.615 219.2L156.435 219.323C148.375 224.672 138.903 227.496 129.23 227.435Z" fill="#FFBB00"/>
<path d="M85.6671 177.947L84.986 177.634C77.0337 173.645 69.0565 169.219 61.342 164.939L60.2761 164.731C39.964 160.653 28.7751 158.408 10.45 147.662L10.3092 147.579L10.2336 147.434C1.0578 129.906 -1.50163 114.584 0.789953 90.9021L0.835836 90.427L1.3109 90.3892C3.29737 90.2279 6.53517 90.1199 9.66617 90.0154C12.7123 89.9141 15.8622 89.8084 17.7934 89.6571L18.2414 89.6215L18.3799 90.0487C20.7811 97.4639 22.8209 104.382 24.9807 111.706C27.2005 119.234 29.4949 127.015 32.2896 135.661C42.5221 138.602 69.9528 137.723 78.4819 136.561C81.0329 136.373 83.5901 136.83 85.9186 137.889C88.2471 138.947 90.2721 140.574 91.8075 142.62L91.9658 142.818L91.9249 143.068C90.0472 154.528 87.8911 166.055 85.8061 177.203L85.6671 177.947Z" fill="#FFBB00"/>
<path d="M135.666 100.242C143.079 86.6825 138.095 69.681 124.536 62.2686C110.976 54.8561 93.9743 59.8395 86.5618 73.3994C79.1493 86.9592 84.1327 103.961 97.6926 111.373C111.252 118.786 128.254 113.802 135.666 100.242Z" fill="#FFB8B8"/>
<path d="M79.1567 85.1523H90.2238L95.1062 71.4814L96.0825 85.1523H101.372L104.22 77.1776L104.79 85.1523H144.094C144.094 77.2965 140.973 69.7624 135.418 64.2075C129.863 58.6525 122.329 55.5318 114.474 55.5318H108.777C100.921 55.5318 93.3873 58.6525 87.8323 64.2075C82.2774 69.7624 79.1567 77.2965 79.1567 85.1523Z" fill="#97522B"/>
</g>
<defs>
<clipPath id="clip0_101_2">
<rect width="766.802" height="500.948" fill="white"/>
</clipPath>
</defs>
</svg>
