<svg width="509" height="500" viewBox="0 0 509 500" fill="none" xmlns="http://www.w3.org/2000/svg">
<g filter="url(#filter0_d_1_40)">
<path d="M457.201 335.209L434.108 175.625C428.176 134.583 392.371 104.167 350.21 104.167H158.261C116.1 104.167 80.2946 134.583 74.3624 175.625L51.2692 335.209C46.6082 367.292 71.8201 395.834 104.659 395.834C119.066 395.834 132.625 390.209 142.795 380.209L190.676 333.334H317.795L365.464 380.209C375.634 390.209 389.405 395.834 403.6 395.834C436.651 395.834 461.862 367.292 457.201 335.209ZM233.049 229.167H190.676V270.833H169.49V229.167H127.117V208.333H169.49V166.667H190.676V208.333H233.049V229.167ZM317.795 208.333C306.142 208.333 296.608 198.958 296.608 187.5C296.608 176.042 306.142 166.667 317.795 166.667C329.447 166.667 338.981 176.042 338.981 187.5C338.981 198.958 329.447 208.333 317.795 208.333ZM360.168 270.833C348.515 270.833 338.981 261.458 338.981 250C338.981 238.542 348.515 229.167 360.168 229.167C371.82 229.167 381.354 238.542 381.354 250C381.354 261.458 371.82 270.833 360.168 270.833Z" fill="#FF9500"/>
</g>
<defs>
<filter id="filter0_d_1_40" x="-4" y="0" width="516.475" height="508" filterUnits="userSpaceOnUse" color-interpolation-filters="sRGB">
<feFlood flood-opacity="0" result="BackgroundImageFix"/>
<feColorMatrix in="SourceAlpha" type="matrix" values="0 0 0 0 0 0 0 0 0 0 0 0 0 0 0 0 0 0 127 0" result="hardAlpha"/>
<feOffset dy="4"/>
<feGaussianBlur stdDeviation="2"/>
<feComposite in2="hardAlpha" operator="out"/>
<feColorMatrix type="matrix" values="0 0 0 0 0 0 0 0 0 0 0 0 0 0 0 0 0 0 0.25 0"/>
<feBlend mode="normal" in2="BackgroundImageFix" result="effect1_dropShadow_1_40"/>
<feBlend mode="normal" in="SourceGraphic" in2="effect1_dropShadow_1_40" result="shape"/>
</filter>
</defs>
</svg>
