<?xml version="1.0"?>
<svg width="889.07556" height="459.37952" xmlns="http://www.w3.org/2000/svg" xmlns:svg="http://www.w3.org/2000/svg" data-name="Layer 1">
 <title>welcome_cats</title>
 <g class="layer">
  <title>Layer 1</title>
  <ellipse cx="444.54" cy="398.17" fill="#e6e6e6" id="svg_1" rx="444.54" ry="12.43"/>
  <path d="m681.45,263.43c-0.56,0.01 -1.13,0.02 -1.69,0.02s-1.13,-0.01 -1.7,-0.02c-29.75,-0.68 -51.32,-19.27 -45.83,-38.78l13.39,-47.58l3.38,-12.05l59.97,1.03l3.65,11.78l14.35,46.36c6.07,19.62 -15.5,38.56 -45.52,39.24z" fill="#7f7f7f" id="svg_2"/>
  <path d="m868.08,398.14a66.2,66.2 0 0 1 -67,-0.76l3.38,-12.05l59.97,1.03l3.65,11.78z" id="svg_3" opacity="0.2" transform="translate(-155.46222 -220.31024)"/>
  <path d="m710.09,226.23c2.59,-9.65 11.1,-23.58 34.98,-40.38c41.65,-29.29 16.81,-51.26 15.73,-52.18c-2.26,-1.93 -1.92,-4.09 0.78,-4.83a11.22,11.22 0 0 1 9.03,2.1c1.35,1.11 32.46,27.68 -14.54,60.73c-42.29,29.75 -33.3,49.17 -33.2,49.36c1.14,2.08 -0.68,3.74 -4.06,3.71s-7.04,-1.72 -8.17,-3.79c-0.24,-0.44 -2.97,-5.73 -0.55,-14.72z" fill="#7f7f7f" id="svg_4"/>
  <path d="m652.07,270.37a6.92,6.92 0 0 1 -6.92,-6.92l0,-29.99a6.92,6.92 0 0 1 13.84,0l0,29.99a6.92,6.92 0 0 1 -6.92,6.92z" fill="#7f7f7f" id="svg_5"/>
  <path d="m658.14,199.17a6.92,6.92 0 0 1 -9.18,3.4l-27.24,-12.54a6.92,6.92 0 0 1 5.78,-12.57l27.25,12.53a6.92,6.92 0 0 1 3.39,9.18z" fill="#7f7f7f" id="svg_6"/>
  <path d="m701.37,199.17a6.92,6.92 0 0 0 9.18,3.4l27.24,-12.54a6.92,6.92 0 0 0 -5.78,-12.57l-27.25,12.53a6.92,6.92 0 0 0 -3.39,9.18z" fill="#7f7f7f" id="svg_7"/>
  <path d="m707.44,270.37a6.92,6.92 0 0 0 6.92,-6.92l0,-29.99a6.92,6.92 0 1 0 -13.84,0l0,29.99a6.92,6.92 0 0 0 6.92,6.92z" fill="#7f7f7f" id="svg_8"/>
  <path d="m736.36,76.22a6.81,6.81 0 0 0 1.37,-5.4l-3.77,-22.16l-3.76,-22.16a6.91,6.91 0 0 0 -11.23,-4.16l-17.3,14.34l-10.43,8.64a65.69,65.69 0 0 0 -21.05,-0.32l-10.04,-8.32l-17.3,-14.34a6.91,6.91 0 0 0 -11.23,4.16l-3.77,22.16l-3.76,22.16a6.84,6.84 0 0 0 0.3,3.47a66.12,66.12 0 1 0 111.97,1.93z" fill="#7f7f7f" id="svg_9"/>
  <path d="m796.57,251.73a3.45,3.45 0 0 0 -1.2,0.22a3.39,3.39 0 0 0 -2.18,2.63l-4.57,26.87a3.42,3.42 0 0 0 4.56,3.78l25.56,-9.48a3.42,3.42 0 0 0 0.99,-5.84l0,0l-20.99,-17.39a3.39,3.39 0 0 0 -2.17,-0.79z" fill="#e6e6e6" id="svg_10" transform="translate(-155.46222 -220.31024)"/>
  <path d="m876.17,251.73a3.39,3.39 0 0 0 -2.18,0.79l-20.98,17.39a3.42,3.42 0 0 0 0.99,5.84l25.56,9.48a3.42,3.42 0 0 0 4.56,-3.78l-4.57,-26.87a3.39,3.39 0 0 0 -2.18,-2.63a3.45,3.45 0 0 0 -1.2,-0.22z" fill="#e6e6e6" id="svg_11" transform="translate(-155.46222 -220.31024)"/>
  <circle cx="679.75" cy="119.66" fill="#e6e6e6" id="svg_12" r="9.23"/>
  <ellipse cx="679.75" cy="115.04" fill="#3f3d56" id="svg_13" rx="6.15" ry="2.31"/>
  <path d="m675.14,125.04l8.46,0a0,0 0 0 1 0,0l0,10.38a4.23,4.23 0 0 1 -4.23,4.23l0,0a4.23,4.23 0 0 1 -4.23,-4.23l0,-10.38a0,0 0 0 1 0,0z" fill="#ff6584" id="svg_14"/>
  <path d="m835.73,240.69c-0.44,0.92 -0.88,1.85 -1.28,2.8a65.82,65.82 0 0 0 -4.65,35.34c0.86,-1.25 1.77,-2.56 2.7,-3.89a65.78,65.78 0 0 1 3.23,-34.25z" fill="#3f3d56" id="svg_15" transform="translate(-155.46222 -220.31024)"/>
  <path d="m842.65,249.15c-0.44,0.92 -0.87,1.85 -1.28,2.8a65.82,65.82 0 0 0 -4.65,35.34c0.87,-1.26 1.77,-2.56 2.7,-3.89a65.78,65.78 0 0 1 3.23,-34.25z" fill="#3f3d56" id="svg_16" transform="translate(-155.46222 -220.31024)"/>
  <path d="m863.99,415.2l-0.98,-12.4l-0.97,-12.4a3.83,3.83 0 0 0 -5.98,-2.85l-10.25,7.04l-7.49,5.15a5.1,5.1 0 0 0 -7.75,0l-7.48,-5.15l-10.25,-7.04a3.83,3.83 0 0 0 -5.98,2.85l-0.98,12.4l-0.97,12.4a3.83,3.83 0 0 0 5.46,3.75l11.22,-5.35l9.23,-4.4a5.1,5.1 0 0 0 7.26,0l9.22,4.4l11.22,5.35a3.83,3.83 0 0 0 5.47,-3.75z" fill="#6c63ff" id="svg_17" transform="translate(-155.46222 -220.31024)"/>
  <circle cx="667.45" cy="109.66" fill="#e6e6e6" id="svg_18" r="2.31"/>
  <circle cx="692.06" cy="109.66" fill="#e6e6e6" id="svg_19" r="2.31"/>
  <path d="m233.43,243.05c0.56,0.01 1.12,0.02 1.69,0.02s1.13,-0.01 1.69,-0.02c29.76,-0.67 51.33,-19.27 45.84,-38.77l-13.39,-47.59l-3.38,-12.05l-59.98,1.03l-3.64,11.78l-14.35,46.36c-6.08,19.62 15.49,38.57 45.52,39.24z" fill="#3f007f" id="svg_20" transform="matrix(1 0 0 1 0 0)"/>
  <path d="m357.72,377.76a66.2,66.2 0 0 0 67,-0.76l-3.38,-12.05l-59.98,1.03l-3.64,11.78z" id="svg_21" opacity="0.2" transform="translate(-155.46222 -220.31024)"/>
  <path d="m197.5,200.21c-6.47,-7.61 -20.13,-16.56 -48.9,-21.52c-50.18,-8.66 -37.12,-39.14 -36.54,-40.43c1.22,-2.71 -0.01,-4.53 -2.77,-4.05a11.22,11.22 0 0 0 -7.27,5.77c-0.74,1.59 -17.49,38.91 39.13,48.67c50.96,8.79 51.14,30.19 51.13,30.41c-0.14,2.36 2.21,3.08 5.26,1.62s5.62,-4.57 5.76,-6.93c0.03,-0.5 0.23,-6.44 -5.8,-13.54z" fill="#3f007f" id="svg_22" transform="matrix(1 0 0 1 0 0)"/>
  <path d="m262.8,249.99a6.92,6.92 0 0 0 6.92,-6.92l0,-29.99a6.92,6.92 0 0 0 -13.84,0l0,29.99a6.92,6.92 0 0 0 6.92,6.92z" fill="#3f007f" id="svg_23" transform="matrix(1 0 0 1 0 0)"/>
  <path d="m256.73,178.79a6.92,6.92 0 0 0 9.18,3.4l27.25,-12.54a6.92,6.92 0 1 0 -5.79,-12.57l-27.24,12.54a6.92,6.92 0 0 0 -3.4,9.17z" fill="#3f007f" id="svg_24" transform="matrix(1 0 0 1 0 0)"/>
  <path d="m213.51,178.79a6.92,6.92 0 0 1 -9.18,3.4l-27.25,-12.54a6.92,6.92 0 1 1 5.79,-12.57l27.24,12.54a6.92,6.92 0 0 1 3.4,9.17z" fill="#3f007f" id="svg_25" transform="matrix(1 0 0 1 0 0)"/>
  <path d="m207.44,249.99a6.92,6.92 0 0 1 -6.92,-6.92l0,-29.99a6.92,6.92 0 0 1 13.84,0l0,29.99a6.92,6.92 0 0 1 -6.92,6.92z" fill="#3f007f" id="svg_26" transform="matrix(1 0 0 1 0 0)"/>
  <path d="m290.49,53.91a6.84,6.84 0 0 0 0.3,-3.47l-3.77,-22.16l-3.76,-22.16a6.91,6.91 0 0 0 -11.23,-4.16l-17.31,14.34l-10.04,8.32a65.69,65.69 0 0 0 -21.05,0.32l-10.42,-8.64l-17.31,-14.34a6.91,6.91 0 0 0 -11.22,4.16l-3.77,22.16l-3.77,22.16a6.81,6.81 0 0 0 1.38,5.41a66.14,66.14 0 1 0 111.97,-1.94z" fill="#3f007f" id="svg_27" transform="matrix(1 0 0 1 0 0)"/>
  <path d="m427.05,232.14l-20.98,17.39l0,0a3.42,3.42 0 0 0 0.99,5.84l25.55,9.48a3.42,3.42 0 0 0 4.57,-3.78l-4.57,-26.87a3.39,3.39 0 0 0 -2.18,-2.63a3.45,3.45 0 0 0 -1.21,-0.22a3.39,3.39 0 0 0 -2.17,0.79z" fill="#e6e6e6" id="svg_28" transform="translate(-155.46222 -220.31024)"/>
  <path d="m348.43,231.57a3.39,3.39 0 0 0 -2.19,2.63l-4.57,26.87a3.42,3.42 0 0 0 4.57,3.78l25.55,-9.48a3.42,3.42 0 0 0 1,-5.84l-20.99,-17.39a3.39,3.39 0 0 0 -2.17,-0.79a3.45,3.45 0 0 0 -1.2,0.22z" fill="#e6e6e6" id="svg_29" transform="translate(-155.46222 -220.31024)"/>
  <circle cx="235.12" cy="99.28" fill="#e6e6e6" id="svg_30" r="9.23"/>
  <ellipse cx="235.12" cy="94.66" fill="#3f3d56" id="svg_31" rx="6.15" ry="2.31"/>
  <path d="m1017.43,769.21l0,0a4.23,4.23 0 0 1 4.23,4.23l0,10.38a0,0 0 0 1 0,0l-8.46,0a0,0 0 0 1 0,0l0,-10.38a4.23,4.23 0 0 1 4.23,-4.23z" fill="#ff6584" id="svg_32" transform="rotate(-180 1017.4252014160156,776.51611328125)"/>
  <path d="m390.07,220.31c0.44,0.92 0.87,1.85 1.28,2.8a65.82,65.82 0 0 1 4.65,35.34c-0.87,-1.25 -1.78,-2.56 -2.71,-3.89a65.78,65.78 0 0 0 -3.22,-34.25z" fill="#3f3d56" id="svg_33" transform="translate(-155.46222 -220.31024)"/>
  <path d="m383.15,228.77c0.44,0.92 0.87,1.85 1.27,2.8a65.82,65.82 0 0 1 4.66,35.34c-0.87,-1.26 -1.78,-2.56 -2.71,-3.89a65.77,65.77 0 0 0 -3.22,-34.25z" fill="#3f3d56" id="svg_34" transform="translate(-155.46222 -220.31024)"/>
  <path d="m361.81,260.26l0.97,-12.4l0.98,-12.4a3.83,3.83 0 0 1 5.98,-2.85l10.25,7.04l7.48,5.15a5.1,5.1 0 0 1 7.75,0l7.49,-5.15l10.25,-7.04a3.83,3.83 0 0 1 5.98,2.85l0.97,12.4l0.98,12.4a3.83,3.83 0 0 1 -5.46,3.75l-11.23,-5.35l-9.22,-4.4a5.1,5.1 0 0 1 -7.26,0l-9.23,4.4l-11.22,5.35a3.83,3.83 0 0 1 -5.46,-3.75z" fill="#6c63ff" id="svg_35" transform="translate(-155.46222 -220.31024)"/>
  <path d="m400.58,309.59c0,1.28 1.03,0 2.3,0s2.31,1.28 2.31,0a2.31,2.31 0 0 0 -4.61,0z" fill="#e6e6e6" id="svg_36" transform="translate(-155.46222 -220.31024)"/>
  <path d="m380.58,309.59c0,1.28 -1.03,0 -2.3,0s-2.31,1.28 -2.31,0a2.31,2.31 0 0 1 4.61,0z" fill="#e6e6e6" id="svg_37" transform="translate(-155.46222 -220.31024)"/>
  <polygon fill="#3f3d56" id="svg_38" points="481.05 263.451 481.05 248.788 407.736 248.788 407.736 249.705 407.736 263.451 407.736 381.67 407.736 396.333 422.399 396.333 481.05 396.333 481.05 381.67 422.399 381.67 422.399 263.451 481.05 263.451"/>
  <path d="m516.79,248.79l0,147.54l73.32,0l0,-147.54l-73.32,0zm58.65,132.88l-43.98,0l0,-118.22l43.98,0l0,118.22z" fill="#3f007f" id="svg_39" transform="matrix(1 0 0 1 0 0)"/>
  <polygon fill="#3f007f" id="svg_40" points="313.344 381.67 313.344 249.705 298.681 249.705 298.681 381.67 298.681 396.333 313.344 396.333 371.995 396.333 371.995 381.67 313.344 381.67" transform="matrix(1 0 0 1 0 0)"/>
  <polygon fill="#000000" id="svg_41" points="265.69 263.451 265.69 248.788 192.376 248.788 192.376 249.705 192.376 263.451 192.376 314.771 192.376 329.434 192.376 381.67 192.376 396.333 207.039 396.333 265.69 396.333 265.69 381.67 207.039 381.67 207.039 329.434 265.69 329.434 265.69 314.771 207.039 314.771 207.039 263.451 265.69 263.451" transform="matrix(1 0 0 1 0 0)"/>
  <polygon fill="#3f007f" id="svg_42" points="839.372 263.451 839.372 248.788 766.058 248.788 766.058 249.705 766.058 263.451 766.058 314.771 766.058 329.434 766.058 381.67 766.058 396.333 780.721 396.333 839.372 396.333 839.372 381.67 780.721 381.67 780.721 329.434 839.372 329.434 839.372 314.771 780.721 314.771 780.721 263.451 839.372 263.451"/>
  <polygon fill="#3f007f" id="svg_43" points="142.889 249.705 142.889 370.89 104.228 332.23 104.14 332.319 104.058 332.237 64.535 371.76 64.535 249.247 49.872 249.247 49.872 395.875 64.535 395.875 64.535 392.496 104.147 352.884 142.889 391.627 142.889 396.333 157.552 396.333 157.552 249.705 142.889 249.705"/>
  <polygon fill="#000000" id="svg_44" points="717.488 249.705 717.488 253.083 677.876 292.695 639.133 253.953 639.133 249.247 624.47 249.247 624.47 395.875 639.133 395.875 639.133 274.689 677.794 313.35 677.883 313.261 677.964 313.342 717.488 273.819 717.488 396.333 732.15 396.333 732.15 249.705 717.488 249.705" transform="matrix(1 0 0 1 0 0)"/>
  <circle cx="335.08" cy="150.38" fill="#7f003f" id="svg_45" r="9" transform="matrix(1 0 0 1 0 0)"/>
  <circle cx="113.08" cy="250.38" fill="#7f003f" id="svg_46" r="9" transform="matrix(1 0 0 1 0 0)"/>
  <circle cx="291.08" cy="450.38" fill="#7f003f" id="svg_47" r="9" transform="matrix(1 0 0 1 0 0)"/>
  <circle cx="517.08" cy="177.38" fill="#7f003f" id="svg_48" r="9" transform="matrix(1 0 0 1 0 0)"/>
  <circle cx="782.08" cy="442.38" fill="#7f003f" id="svg_49" r="9"/>
  <circle cx="791.08" cy="206.38" fill="#7f003f" id="svg_50" r="9" transform="matrix(1 0 0 1 0 0)"/>
  <circle cx="677.08" cy="368.38" fill="#7f003f" id="svg_51" r="9" transform="matrix(1 0 0 1 0 0)"/>
 </g>
</svg>